<?xml version="1.0" standalone="no"?>
<!DOCTYPE svg PUBLIC "-//W3C//DTD SVG 20010904//EN"
 "http://www.w3.org/TR/2001/REC-SVG-20010904/DTD/svg10.dtd">
<svg version="1.0" xmlns="http://www.w3.org/2000/svg"
 width="1024.000000pt" height="1024.000000pt" viewBox="0 0 1024.000000 1024.000000"
 preserveAspectRatio="xMidYMid meet">

<g transform="translate(0.000000,1024.000000) scale(0.100000,-0.100000)"
fill="#fff" stroke="none">
<path d="M4985 7929 c-307 -23 -590 -92 -870 -211 -602 -257 -1106 -732 -1390
-1313 -256 -523 -339 -1085 -244 -1668 90 -554 356 -1074 754 -1472 379 -378
816 -626 1316 -745 331 -78 753 -91 1099 -34 525 87 1042 347 1429 719 347
334 590 727 731 1181 125 401 152 854 79 1282 -80 466 -291 922 -592 1277
-101 120 -293 308 -400 393 -375 297 -817 490 -1286 562 -106 16 -449 43 -501
38 -8 0 -64 -5 -125 -9z m478 -314 c463 -54 880 -227 1242 -514 108 -85 288
-265 378 -376 232 -288 401 -636 481 -991 80 -350 80 -735 1 -1084 -211 -940
-979 -1682 -1920 -1855 -509 -93 -1000 -36 -1456 169 -784 353 -1324 1091
-1424 1944 -107 912 306 1803 1072 2315 252 168 571 301 868 361 219 44 534
57 758 31z"/>
<path d="M5035 7120 c-27 -11 -61 -49 -74 -82 -7 -18 -11 -373 -11 -1038 -2
-1120 -7 -1038 63 -1080 31 -19 58 -20 1002 -20 950 0 971 0 1003 20 94 57 94
183 0 240 -32 19 -53 20 -910 20 l-878 0 0 920 c0 1014 3 968 -63 1008 -35 23
-95 28 -132 12z"/>
</g>
</svg>
