<?xml version="1.0" standalone="no"?>
<!DOCTYPE svg PUBLIC "-//W3C//DTD SVG 20010904//EN"
 "http://www.w3.org/TR/2001/REC-SVG-20010904/DTD/svg10.dtd">
<svg version="1.0" xmlns="http://www.w3.org/2000/svg"
 width="1024.000000pt" height="1024.000000pt" viewBox="0 0 1024.000000 1024.000000"
 preserveAspectRatio="xMidYMid meet">

<g transform="translate(0.000000,1024.000000) scale(0.100000,-0.100000)"
fill="#df204e" stroke="none">
<path d="M2710 6913 c-122 -43 -212 -145 -239 -271 -17 -83 -15 -2208 3 -2283
25 -110 98 -197 205 -248 l56 -26 2600 0 2600 0 48 22 c70 33 149 113 183 186
l29 62 3 1110 c3 1160 2 1186 -40 1269 -33 64 -103 131 -171 162 l-62 29
-2585 2 c-2328 1 -2589 0 -2630 -14z m2160 -1218 l0 -475 205 0 205 0 0 -120
0 -120 -345 0 -345 0 0 595 0 595 140 0 140 0 0 -475z m810 -120 l0 -595 -135
0 -135 0 0 595 0 595 135 0 135 0 0 -595z m499 218 c80 -208 147 -381 150
-385 4 -4 71 161 150 366 79 205 146 379 150 385 5 8 53 11 159 9 l151 -3
-248 -590 -247 -590 -110 -3 -110 -3 -242 578 c-133 318 -244 586 -248 596 -6
16 5 17 148 17 l153 0 144 -377z m1491 257 l0 -120 -205 0 -205 0 0 -115 0
-115 195 0 195 0 0 -120 0 -120 -195 0 -195 0 0 -120 0 -120 205 0 205 0 0
-120 0 -120 -345 0 -345 0 0 595 0 595 345 0 345 0 0 -120z m-3959 -150 c318
-98 411 -514 166 -736 -135 -122 -337 -150 -497 -69 -206 105 -292 359 -194
574 90 197 315 297 525 231z"/>
</g>
</svg>
