<?xml version="1.0" standalone="no"?>
<!DOCTYPE svg PUBLIC "-//W3C//DTD SVG 20010904//EN"
 "http://www.w3.org/TR/2001/REC-SVG-20010904/DTD/svg10.dtd">
<svg version="1.0" xmlns="http://www.w3.org/2000/svg"
 width="1024.000000pt" height="1024.000000pt" viewBox="0 0 1024.000000 1024.000000"
 preserveAspectRatio="xMidYMid meet">

<g transform="translate(0.000000,1024.000000) scale(0.100000,-0.100000)"
fill="#9aa7b2" stroke="none">
<path d="M763 9975 c-176 -38 -346 -173 -429 -340 -70 -142 -64 242 -62 -4527
l3 -4313 27 -73 c37 -101 82 -173 154 -246 73 -72 145 -117 246 -154 l73 -27
4340 0 c4181 0 4342 1 4395 18 101 34 180 80 250 144 86 80 136 154 174 263
l31 85 0 4330 c0 4170 -1 4332 -18 4389 -70 228 -258 405 -476 452 -97 20
-8613 19 -8708 -1z m2705 -1695 c68 -24 50 -12 2417 -1582 1473 -977 1469
-974 1534 -1108 51 -106 64 -189 52 -344 -6 -72 -16 -149 -22 -171 -19 -68
-81 -175 -129 -224 -25 -25 -827 -660 -1782 -1411 -1192 -937 -1759 -1376
-1807 -1401 -196 -101 -436 -71 -598 75 -140 126 -206 335 -163 516 18 77 73
183 123 237 23 25 492 399 1042 831 1027 807 1978 1554 1983 1557 1 1 -711
476 -1583 1055 -1218 809 -1597 1065 -1633 1105 -273 298 -127 780 266 880 78
20 218 13 300 -15z"/>
</g>
</svg>
