<?xml version="1.0" standalone="no"?>
<!DOCTYPE svg PUBLIC "-//W3C//DTD SVG 20010904//EN"
 "http://www.w3.org/TR/2001/REC-SVG-20010904/DTD/svg10.dtd">
<svg version="1.0" xmlns="http://www.w3.org/2000/svg"
 width="1024.000000pt" height="1024.000000pt" viewBox="0 0 1024.000000 1024.000000"
 preserveAspectRatio="xMidYMid meet">

<g transform="translate(0.000000,1024.000000) scale(0.100000,-0.100000)"
fill="#ff5757" stroke="none">
<path d="M4991 8578 c-11 -4 -33 -25 -49 -47 -35 -48 -52 -142 -52 -281 l0
-90 -32 0 c-41 0 -268 -138 -342 -208 -51 -48 -41 -100 40 -208 54 -71 180
-278 227 -371 62 -122 169 -408 206 -553 81 -312 91 -368 103 -618 17 -346 0
-513 -86 -824 -33 -122 -75 -221 -183 -428 -171 -329 -200 -376 -257 -412 -78
-50 -379 -294 -481 -390 -49 -47 -110 -111 -135 -143 -25 -32 -69 -85 -98
-118 -29 -34 -87 -109 -127 -167 -40 -58 -87 -121 -103 -140 -41 -48 -298
-207 -511 -316 -96 -49 -190 -104 -209 -121 -33 -32 -35 -35 -29 -88 7 -72
150 -389 187 -416 14 -11 46 -20 73 -21 37 -2 46 -6 41 -18 -3 -8 -8 -54 -11
-101 l-6 -86 38 -41 c20 -23 42 -42 47 -42 6 0 24 -6 41 -14 53 -24 157 -62
241 -89 88 -27 121 -24 162 14 24 23 36 51 77 184 48 153 157 401 240 540 66
112 93 147 137 183 350 278 672 594 843 826 74 101 95 122 171 165 107 61 390
173 516 204 58 14 152 33 210 42 58 8 155 24 215 35 217 37 252 41 420 47 380
12 867 -56 1290 -181 215 -63 420 -143 634 -244 275 -131 264 -127 310 -114
49 15 91 66 161 197 29 55 68 128 87 162 18 34 34 71 36 82 2 11 10 28 19 38
42 48 47 73 37 193 -19 246 -32 295 -85 318 -34 16 -77 15 -192 -5 -75 -13
-160 -17 -377 -17 l-280 0 -190 58 c-203 61 -397 107 -535 127 -168 24 -543
213 -730 368 -121 100 -242 218 -312 303 -143 174 -393 545 -464 688 -147 295
-282 719 -344 1077 -43 249 -52 348 -59 670 -6 274 -8 294 -27 320 -30 40 -66
55 -158 64 -119 12 -321 16 -345 7z m770 -3045 c41 -54 145 -170 231 -258 87
-88 158 -161 158 -161 0 -1 -28 -5 -62 -8 -123 -14 -479 -88 -542 -112 -16 -6
-18 -4 -12 12 39 99 122 442 141 577 3 26 8 47 9 47 2 0 36 -44 77 -97z"/>
</g>
</svg>
