<?xml version="1.0" standalone="no"?>
<!DOCTYPE svg PUBLIC "-//W3C//DTD SVG 20010904//EN"
 "http://www.w3.org/TR/2001/REC-SVG-20010904/DTD/svg10.dtd">
<svg version="1.0" xmlns="http://www.w3.org/2000/svg"
 width="1024.000000pt" height="1024.000000pt" viewBox="0 0 1024.000000 1024.000000"
 preserveAspectRatio="xMidYMid meet">

<g transform="translate(0.000000,1024.000000) scale(0.100000,-0.100000)"
fill="#9aa7b2" stroke="none">
<path d="M763 9975 c-176 -38 -346 -173 -429 -340 -70 -142 -64 242 -62 -4527
l3 -4313 27 -73 c37 -101 82 -173 154 -246 73 -72 145 -117 246 -154 l73 -27
4340 0 c4181 0 4342 1 4395 18 101 34 180 80 250 144 86 80 136 154 174 263
l31 85 0 4330 c0 4170 -1 4332 -18 4389 -70 228 -258 405 -476 452 -97 20
-8613 19 -8708 -1z m6122 -1690 c179 -47 325 -192 379 -375 20 -65 22 -196 5
-265 -18 -78 -65 -168 -116 -225 -39 -43 -675 -547 -2398 -1899 -165 -130
-375 -295 -467 -367 l-167 -132 1585 -1052 c1258 -836 1595 -1064 1634 -1107
56 -61 113 -171 129 -251 58 -278 -124 -561 -401 -627 -115 -27 -256 -12 -355
38 -27 14 -629 411 -1338 883 -710 471 -1542 1024 -1850 1229 -608 403 -642
430 -704 557 -51 103 -63 187 -52 343 12 158 34 232 97 327 53 79 -34 8 1089
889 473 372 1231 967 1685 1324 524 411 845 658 880 674 112 51 252 65 365 36z"/>
</g>
</svg>
