<?xml version="1.0" standalone="no"?>
<!DOCTYPE svg PUBLIC "-//W3C//DTD SVG 20010904//EN"
 "http://www.w3.org/TR/2001/REC-SVG-20010904/DTD/svg10.dtd">
<svg version="1.0" xmlns="http://www.w3.org/2000/svg"
 width="1024.000000pt" height="1024.000000pt" viewBox="0 0 1024.000000 1024.000000"
 preserveAspectRatio="xMidYMid meet">

<g transform="translate(0.000000,1024.000000) scale(0.100000,-0.100000)"
fill="#ff5757" stroke="none">
<path d="M1210 7450 c-93 -9 -189 -44 -272 -99 -122 -80 -211 -197 -254 -336
l-25 -80 3 -1865 3 -1865 24 -63 c28 -76 104 -194 157 -244 62 -58 161 -116
248 -146 l81 -27 4070 0 4070 0 81 28 c103 34 214 107 282 182 57 65 123 190
144 275 11 45 13 385 13 1880 l0 1825 -24 82 c-57 203 -211 361 -415 430 l-81
28 -4020 1 c-2211 1 -4049 -2 -4085 -6z m8125 -311 c67 -25 141 -94 175 -164
l25 -50 0 -1835 0 -1835 -24 -50 c-32 -63 -92 -124 -156 -155 l-50 -25 -4060
0 -4060 0 -50 24 c-63 32 -124 93 -156 156 l-24 50 0 1835 0 1835 25 50 c33
68 108 139 172 164 53 20 64 20 4090 20 l4037 1 56 -21z"/>
<path d="M4680 5090 c0 -1142 3 -1430 13 -1424 6 5 438 326 960 716 l948 707
-198 149 c-326 244 -1697 1267 -1710 1276 -10 6 -13 -282 -13 -1424z"/>
</g>
</svg>
